<svg width="181" height="181" viewBox="0 0 181 181" fill="none" xmlns="http://www.w3.org/2000/svg">
<path d="M90.5 181C140.482 181 181 140.482 181 90.5C181 40.5182 140.482 0 90.5 0C40.5182 0 0 40.5182 0 90.5C0 140.482 40.5182 181 90.5 181Z" fill="white"/>
<g clip-path="url(#clip0_1_23)">
<path d="M90.5 75.0865C106.263 65.4072 124.235 56.6316 156 56.6316V41C125.881 41 105.971 48.5214 90.5 56.983V75.0865Z" fill="#1D1D1B"/>
<path d="M90.5 124.017C75.0289 132.479 55.1187 140 25 140V124.368C56.7651 124.368 74.7376 115.593 90.5 105.914V124.017Z" fill="#1D1D1B"/>
<path d="M25 119.158C60.0501 119.158 77.684 107.935 94.7371 97.0832C110.583 86.9993 125.55 77.4737 156 77.4737V61.8421C120.95 61.8421 103.316 73.0645 86.2629 83.9168C70.4177 94.0007 55.4499 103.526 25 103.526V119.158Z" fill="#1D1D1B"/>
</g>
<defs>
<clipPath id="clip0_1_23">
<rect width="131" height="99" fill="white" transform="translate(25 41)"/>
</clipPath>
</defs>
</svg>
