<svg width="181" height="181" viewBox="0 0 181 181" fill="none" xmlns="http://www.w3.org/2000/svg">
<g clip-path="url(#clip0_29_258)">
<path d="M90.5 181C140.482 181 181 140.482 181 90.5C181 40.5182 140.482 0 90.5 0C40.5182 0 0 40.5182 0 90.5C0 140.482 40.5182 181 90.5 181Z" fill="white"/>
<path fill-rule="evenodd" clip-rule="evenodd" d="M85.1122 113.079L60.4626 158.753C69.6321 162.771 79.7658 165 90.421 165C103.036 165 114.921 161.875 125.339 156.358L99.57 112.553C97.0392 113.435 94.3192 113.914 91.4871 113.914C89.282 113.914 87.1449 113.624 85.1122 113.079Z" fill="#D1D3D4"/>
<path fill-rule="evenodd" clip-rule="evenodd" d="M115.713 93.236L165 93.1177C164.155 117.54 151.536 138.976 132.633 151.944L107.009 108.386C111.572 104.656 114.763 99.3167 115.713 93.236Z" fill="#A8AAAB"/>
<path fill-rule="evenodd" clip-rule="evenodd" d="M131.033 27.9886C149.955 40.2657 162.954 60.873 164.815 84.6039L115.552 84.7222C114.503 79.3539 111.697 74.6132 107.756 71.1211L131.033 27.9886Z" fill="#818385"/>
<path fill-rule="evenodd" clip-rule="evenodd" d="M82.4667 66.6669C85.2586 65.5635 88.3019 64.9571 91.4871 64.9571C94.6611 64.9571 97.6943 65.5593 100.478 66.6553L123.626 23.7632C113.625 18.7944 102.35 16 90.421 16C78.4954 16 67.2232 18.7928 57.2248 23.7589L82.4667 66.6669Z" fill="#565759"/>
<path fill-rule="evenodd" clip-rule="evenodd" d="M49.8187 27.9821L75.204 71.1339C71.242 74.6497 68.4293 79.4285 67.3996 84.8377L16 84.9612C17.7583 61.0758 30.7968 40.3201 49.8187 27.9821Z" fill="#1F1C1C"/>
</g>
<defs>
<clipPath id="clip0_29_258">
<rect width="181" height="181" fill="white"/>
</clipPath>
</defs>
</svg>
