<svg width="181" height="181" viewBox="0 0 181 181" fill="none" xmlns="http://www.w3.org/2000/svg">
<g clip-path="url(#clip0_33_2)">
<path d="M178.206 68.22C178.105 67.6815 177.97 67.1766 177.802 66.6382L177.701 66.2343C177.264 64.6525 176.826 63.2053 176.388 61.8927C175.951 60.6138 175.479 59.2676 174.907 57.854L174.672 57.1809C174.066 55.6664 173.426 54.1856 172.786 52.8393C171.137 49.2382 169.286 45.839 167.367 42.7427C167.131 42.3388 166.862 41.9349 166.593 41.4974C165.482 39.7473 164.304 38.0645 163.058 36.4154C162.318 35.4394 161.577 34.4634 160.803 33.521C143.703 12.3516 118.052 0 90.4832 0C40.5962 0 0 40.5887 0 90.5C0 104.501 3.13056 117.997 9.1897 130.281C10.3342 132.637 11.6134 134.959 12.9935 137.248C14.5083 139.772 16.1914 142.229 17.9418 144.618C18.0428 144.719 18.1101 144.854 18.1774 144.955C19.2546 146.368 20.3318 147.715 21.5099 149.027C36.0182 166.158 56.5856 177.298 78.6342 180.192C78.9371 180.26 79.2401 180.293 79.5767 180.327C81.2598 180.529 82.9766 180.697 84.6597 180.798C85.7705 180.865 86.915 180.933 88.0932 180.933H88.2278C89.002 180.966 89.7426 181 90.4832 181C125.189 181 156.09 161.345 171.238 131.392C173.392 127.151 175.21 122.675 176.725 118.064C177.129 116.718 177.533 115.405 177.869 114.059L178.206 112.814C180.057 105.578 181 98.0725 181 90.5C181 82.9275 180.057 75.4223 178.206 68.22ZM17.0329 130.214C12.051 121.093 8.88674 111.198 7.64125 100.866L43.9624 46.6804L62.1399 74.7828L75.6719 60.2772L92.0653 87.4037C62.1062 125.3 33.8302 129.709 17.0329 130.214ZM75.5036 172.62C56.6866 169.187 39.3508 159.225 26.8285 144.484C25.684 143.171 24.6068 141.825 23.5633 140.445C22.7218 139.301 21.8802 138.123 21.106 136.978C41.8754 135.531 70.4207 127.858 100.245 88.2451C109.67 75.7925 116.941 66.8401 126.4 47.2189H131.18L133.941 41.1608H148.314L145.588 47.2525H150.435L148.449 59.5705H133.166C133.166 59.5705 120.577 75.8261 107.55 98.2745C101.322 109.044 94.5226 120.386 89.103 131.694C82.9092 144.585 77.4224 160.234 75.5036 172.62ZM169.69 117.021C169.555 117.357 169.454 117.727 169.319 118.064C168.848 119.444 168.309 120.824 167.737 122.204C167.468 122.877 167.165 123.583 166.862 124.29C166.02 126.209 165.112 128.093 164.102 129.944L163.529 131.392H163.294C148.819 157.239 121.25 174 90.4832 174C89.7763 174 89.0694 173.966 88.3625 173.966H88.2278C87.218 173.932 86.2081 173.899 85.1646 173.798C84.3904 173.764 83.6498 173.697 82.9092 173.629C82.7409 173.629 82.6063 173.629 82.438 173.596C84.1547 162.691 89.0694 147.917 95.3978 134.723C95.9364 133.613 96.475 132.502 97.0472 131.392C97.4848 130.517 97.9224 129.642 98.3937 128.733C99.1679 127.252 99.9758 125.771 100.784 124.29C101.895 122.204 103.039 120.117 104.217 118.064H104.251C104.419 117.694 104.621 117.324 104.823 116.987C105.294 116.146 105.766 115.338 106.237 114.53V114.597L106.405 114.227C107.886 111.636 109.367 109.112 110.815 106.587L114.08 114.597L120.813 97.8033L127.579 114.597L131.483 104.905L135.388 114.597L142.188 97.8033L148.954 114.597L152.859 104.905L156.763 114.597L163.529 97.8033L170.296 114.597L170.396 114.799C170.161 115.573 169.925 116.28 169.69 117.021Z" fill="#FD0F41"/>
<path d="M92.0653 87.4037C62.1062 125.3 33.8302 129.709 17.0329 130.214C12.051 121.093 8.88674 111.198 7.64125 100.866L43.9624 46.6804L62.1398 74.7828L75.6719 60.2772L92.0653 87.4037Z" fill="white"/>
<path d="M150.435 47.2525L148.449 59.5705H133.166C133.166 59.5705 120.577 75.8261 107.55 98.2745C101.322 109.044 94.5226 120.386 89.103 131.695C82.9092 144.585 77.4223 160.234 75.5036 172.62C56.6866 169.187 39.3507 159.225 26.8285 144.484C25.684 143.171 24.6068 141.825 23.5633 140.445C22.7218 139.301 21.8802 138.123 21.106 136.978C41.8754 135.531 70.4207 127.858 100.245 88.2451C109.67 75.7925 116.941 66.8401 126.4 47.2189H131.18L133.941 41.1608H148.314L145.588 47.2525H150.435Z" fill="white"/>
<path d="M170.397 114.799C170.161 115.573 169.925 116.28 169.69 117.021C169.555 117.357 169.454 117.727 169.319 118.064C168.848 119.444 168.309 120.824 167.737 122.204C167.468 122.877 167.165 123.583 166.862 124.29C166.02 126.209 165.112 128.093 164.102 129.944C163.9 130.348 163.664 130.752 163.428 131.156C163.395 131.223 163.361 131.324 163.294 131.392C148.819 157.239 121.25 174 90.4832 174C89.7763 174 89.0694 174 88.3625 174H88.2278C87.218 173.966 86.2081 173.932 85.1646 173.831C84.3904 173.798 83.6498 173.73 82.9092 173.663C82.7409 173.663 82.6063 173.663 82.438 173.629C84.1547 162.725 89.0694 147.95 95.3978 134.757C95.9364 133.647 96.475 132.536 97.0472 131.425C97.4848 130.55 97.9224 129.675 98.3937 128.766C99.1679 127.286 99.9758 125.805 100.784 124.324C101.895 122.237 103.039 120.151 104.217 118.098H104.251C104.419 117.727 104.621 117.357 104.823 117.021C105.294 116.179 105.766 115.372 106.237 114.564V114.631L106.405 114.261C107.886 111.669 109.367 109.145 110.815 106.621L114.08 114.631L120.813 97.8369L127.579 114.631L131.483 104.938L135.388 114.631L142.188 97.8369L148.954 114.631L152.859 104.938L156.763 114.631L163.529 97.8369L170.296 114.631L170.397 114.833V114.799Z" fill="white"/>
</g>
<defs>
<clipPath id="clip0_33_2">
<rect width="181" height="181" fill="white"/>
</clipPath>
</defs>
</svg>
