<?xml version="1.0" encoding="UTF-8"?>
<svg id="Ebene_2" data-name="Ebene 2" xmlns="http://www.w3.org/2000/svg" viewBox="0 0 53.77 53.78">
  <defs>
    <style>
      .cls-1 {
        fill: #fd0f41;
      }

      .cls-2 {
        fill: #fff;
      }
    </style>
  </defs>
  <g id="Ebene_1-2" data-name="Ebene 1">
    <g>
      <path class="cls-1" d="M52.94,20.27c-.03-.16-.07-.31-.12-.47l-.03-.12c-.13-.47-.26-.9-.39-1.29-.13-.38-.27-.78-.44-1.2l-.07-.2c-.18-.45-.37-.89-.56-1.29-.49-1.07-1.04-2.08-1.61-3-.07-.12-.15-.24-.23-.37-.33-.52-.68-1.02-1.05-1.51-.22-.29-.44-.58-.67-.86C42.69,3.67,35.07,0,26.88,0,12.06,0,0,12.06,0,26.89c0,4.16,.93,8.17,2.73,11.82,.34,.7,.72,1.39,1.13,2.07,.45,.75,.95,1.48,1.47,2.19,.03,.03,.05,.07,.07,.1,.32,.42,.64,.82,.99,1.21,4.31,5.09,10.42,8.4,16.97,9.26,.09,.02,.18,.03,.28,.04,.5,.06,1.01,.11,1.51,.14,.33,.02,.67,.04,1.02,.04h.04c.23,.01,.45,.02,.67,.02,10.31,0,19.49-5.84,23.99-14.74,.64-1.26,1.18-2.59,1.63-3.96,.12-.4,.24-.79,.34-1.19l.1-.37c.55-2.15,.83-4.38,.83-6.63s-.28-4.48-.83-6.62ZM5.06,38.69c-1.48-2.71-2.42-5.65-2.79-8.72L13.06,13.87l5.4,8.35,4.02-4.31,4.87,8.06c-8.9,11.26-17.3,12.57-22.29,12.72Zm17.37,12.6c-5.59-1.02-10.74-3.98-14.46-8.36-.34-.39-.66-.79-.97-1.2-.25-.34-.5-.69-.73-1.03,6.17-.43,14.65-2.71,23.51-14.48,2.8-3.7,4.96-6.36,7.77-12.19h1.42s.82-1.8,.82-1.8h4.27l-.81,1.81h1.44l-.59,3.66h-4.54s-3.74,4.83-7.61,11.5c-1.85,3.2-3.87,6.57-5.48,9.93-1.84,3.83-3.47,8.48-4.04,12.16Zm27.98-16.52c-.04,.1-.07,.21-.11,.31-.14,.41-.3,.82-.47,1.23-.08,.2-.17,.41-.26,.62-.25,.57-.52,1.13-.82,1.68l-.17,.43h-.07c-4.3,7.68-12.49,12.66-21.63,12.66-.21,0-.42-.01-.63-.01h-.04c-.3-.01-.6-.02-.91-.05-.23-.01-.45-.03-.67-.05-.05,0-.09,0-.14-.01,.51-3.24,1.97-7.63,3.85-11.55,.16-.33,.32-.66,.49-.99,.13-.26,.26-.52,.4-.79,.23-.44,.47-.88,.71-1.32,.33-.62,.67-1.24,1.02-1.85h.01c.05-.11,.11-.22,.17-.32,.14-.25,.28-.49,.42-.73v.02l.05-.11c.44-.77,.88-1.52,1.31-2.27l.97,2.38,2-4.99,2.01,4.99,1.16-2.88,1.16,2.88,2.02-4.99,2.01,4.99,1.16-2.88,1.16,2.88,2.01-4.99,2.01,4.99,.03,.06c-.07,.23-.14,.44-.21,.66Z"/>
      <path class="cls-2" d="M27.35,25.97c-8.9,11.26-17.3,12.57-22.29,12.72-1.48-2.71-2.42-5.65-2.79-8.72L13.06,13.87l5.4,8.35,4.02-4.31,4.87,8.06Z"/>
      <path class="cls-2" d="M44.69,14.04l-.59,3.66h-4.54s-3.74,4.83-7.61,11.5c-1.85,3.2-3.87,6.57-5.48,9.93-1.84,3.83-3.47,8.48-4.04,12.16-5.59-1.02-10.74-3.98-14.46-8.36-.34-.39-.66-.79-.97-1.2-.25-.34-.5-.69-.73-1.03,6.17-.43,14.65-2.71,23.51-14.48,2.8-3.7,4.96-6.36,7.77-12.19h1.42s.82-1.8,.82-1.8h4.27l-.81,1.81h1.44Z"/>
      <path class="cls-2" d="M50.62,34.11c-.07,.23-.14,.44-.21,.66-.04,.1-.07,.21-.11,.31-.14,.41-.3,.82-.47,1.23-.08,.2-.17,.41-.26,.62-.25,.57-.52,1.13-.82,1.68-.06,.12-.13,.24-.2,.36-.01,.02-.02,.05-.04,.07-4.3,7.68-12.49,12.66-21.63,12.66-.21,0-.42,0-.63,0h-.04c-.3-.01-.6-.02-.91-.05-.23-.01-.45-.03-.67-.05-.05,0-.09,0-.14-.01,.51-3.24,1.97-7.63,3.85-11.55,.16-.33,.32-.66,.49-.99,.13-.26,.26-.52,.4-.79,.23-.44,.47-.88,.71-1.32,.33-.62,.67-1.24,1.02-1.85h.01c.05-.11,.11-.22,.17-.32,.14-.25,.28-.49,.42-.73v.02l.05-.11c.44-.77,.88-1.52,1.31-2.27l.97,2.38,2-4.99,2.01,4.99,1.16-2.88,1.16,2.88,2.02-4.99,2.01,4.99,1.16-2.88,1.16,2.88,2.01-4.99,2.01,4.99,.03,.06Z"/>
    </g>
  </g>
</svg>