<svg xmlns="http://www.w3.org/2000/svg" version="1.1" xmlns:xlink="http://www.w3.org/1999/xlink" xmlns:svgjs="http://svgjs.dev/svgjs" width="500" height="500"><svg id="SvgjsSvg1019" xmlns="http://www.w3.org/2000/svg" viewBox="0 0 500 500"><polygon points="440 224.987 314.937 153.797 271.646 177.848 396.709 249.038 440 224.987"></polygon><polygon points="396.709 297.139 271.646 225.949 228.354 250 353.418 321.19 396.709 297.139"></polygon><polygon points="228.354 298.101 353.418 369.291 310.127 393.342 185.063 322.152 228.354 298.101"></polygon><polygon points="146.582 106.658 146.582 154.759 271.646 225.949 271.646 177.848 146.582 106.658"></polygon><polygon points="103.291 178.81 103.291 226.911 228.354 298.101 228.354 250 103.291 178.81"></polygon><polygon points="60 250.962 60 299.063 185.063 370.253 185.063 322.152 60 250.962"></polygon></svg><style>@media (prefers-color-scheme: light) { :root { filter: none; } }
@media (prefers-color-scheme: dark) { :root { filter: none; } }
</style></svg>