<?xml version="1.0" standalone="no"?>
<!DOCTYPE svg PUBLIC "-//W3C//DTD SVG 20010904//EN"
 "http://www.w3.org/TR/2001/REC-SVG-20010904/DTD/svg10.dtd">
<svg version="1.0" xmlns="http://www.w3.org/2000/svg"
 width="700.000000pt" height="700.000000pt" viewBox="0 0 700.000000 700.000000"
 preserveAspectRatio="xMidYMid meet">
<metadata>
Created by potrace 1.14, written by Peter Selinger 2001-2017
</metadata>
<g transform="translate(0.000000,700.000000) scale(0.100000,-0.100000)"
fill="#000000" stroke="none">
<path d="M0 3500 l0 -3500 3500 0 3500 0 0 3500 0 3500 -3500 0 -3500 0 0
-3500z m6930 0 l0 -3430 -3430 0 -3430 0 0 3430 0 3430 3430 0 3430 0 0 -3430z"/>
<path d="M3500 5185 l0 -1685 -1685 0 -1685 0 2 -1682 3 -1683 1683 -3 1682
-2 0 1685 0 1685 1685 0 1685 0 -2 1683 -3 1682 -1682 3 -1683 2 0 -1685z"/>
</g>
</svg>
