<svg width="500" height="200" viewBox="0 0 500 200" fill="none" xmlns="http://www.w3.org/2000/svg">
<path d="M231.156 88.076L171.535 54.138L150.897 65.603L210.518 99.541L231.156 88.076Z" fill="black"/>
<path d="M210.518 122.472L150.897 88.534L130.259 100L189.88 133.938L210.518 122.472Z" fill="black"/>
<path d="M130.259 122.931L189.88 156.869L169.242 168.335L109.621 134.397L130.259 122.931Z" fill="black"/>
<path d="M91.276 31.665V54.596L150.897 88.534V65.603L91.276 31.665Z" fill="black"/>
<path d="M70.638 66.062V88.993L130.259 122.931V100L70.638 66.062Z" fill="black"/>
<path d="M50 100.459V123.39L109.621 157.328V134.397L50 100.459Z" fill="black"/>
<path d="M276.682 69.68L272.621 68.479C270.772 67.926 269.323 67.397 268.275 66.892C267.227 66.387 266.488 65.834 266.058 65.233C265.63 64.633 265.415 63.914 265.415 63.075C265.415 61.969 265.73 61.021 266.359 60.229C266.988 59.438 267.865 58.833 268.99 58.413C270.115 57.993 271.43 57.784 272.937 57.784C274.213 57.784 275.482 57.937 276.74 58.242C277.999 58.547 279.171 58.971 280.257 59.514C281.343 60.057 282.287 60.701 283.088 61.444L286.778 56.011C285.253 54.619 283.288 53.514 280.887 52.694C278.484 51.875 275.882 51.465 273.081 51.465C270.945 51.465 268.972 51.756 267.161 52.337C265.35 52.919 263.782 53.743 262.458 54.811C261.133 55.879 260.103 57.141 259.369 58.6C258.636 60.059 258.268 61.674 258.268 63.447C258.268 66.155 259.145 68.438 260.899 70.296C262.653 72.155 265.483 73.637 269.392 74.743L273.253 75.858C276.036 76.64 277.938 77.479 278.958 78.375C279.977 79.271 280.488 80.367 280.488 81.663C280.488 83.341 279.749 84.623 278.271 85.509C276.793 86.396 274.863 86.839 272.481 86.839C271.051 86.839 269.616 86.672 268.177 86.339C266.738 86.006 265.379 85.534 264.102 84.924C262.824 84.314 261.728 83.589 260.814 82.75L257.21 88.383C259.078 89.927 261.371 91.114 264.087 91.943C266.804 92.773 269.592 93.187 272.452 93.187C275.616 93.187 278.337 92.667 280.616 91.628C282.894 90.589 284.643 89.145 285.864 87.295C287.083 85.446 287.694 83.311 287.694 80.89C287.694 78.069 286.817 75.776 285.063 74.013C283.308 72.25 280.516 70.806 276.684 69.681L276.682 69.68Z" fill="black"/>
<path d="M312.284 86.008C311.045 86.523 309.729 86.781 308.337 86.781C305.554 86.781 303.357 86.004 301.746 84.45C300.134 82.896 299.329 80.746 299.329 78.001C299.329 76.171 299.691 74.603 300.416 73.297C301.14 71.991 302.174 70.995 303.518 70.309C304.862 69.623 306.468 69.279 308.336 69.279C309.575 69.279 310.762 69.475 311.897 69.865C313.031 70.256 314.046 70.852 314.942 71.652L318.345 66.133C316.915 65.028 315.342 64.207 313.627 63.674C311.911 63.14 310.052 62.873 308.051 62.873C305.744 62.873 303.613 63.25 301.659 64.003C299.704 64.756 297.998 65.814 296.54 67.177C295.081 68.54 293.952 70.141 293.15 71.981C292.349 73.821 291.949 75.837 291.949 78.029C291.949 80.927 292.626 83.515 293.979 85.793C295.332 88.071 297.192 89.873 299.556 91.197C301.919 92.522 304.616 93.185 307.649 93.185C309.65 93.185 311.613 92.851 313.539 92.184C315.465 91.517 317.209 90.602 318.773 89.439L315.513 83.891C314.597 84.788 313.521 85.493 312.282 86.007L312.284 86.008Z" fill="black"/>
<path d="M346.812 64.447C345.068 63.399 342.88 62.874 340.249 62.874C338.228 62.874 336.341 63.313 334.587 64.189C333.485 64.741 332.492 65.473 331.585 66.349V51.15H324.236V92.328H331.585V76.543C331.585 75.133 331.861 73.903 332.413 72.854C332.966 71.806 333.748 70.996 334.759 70.424C335.769 69.852 336.941 69.566 338.275 69.566C340.278 69.585 341.85 70.181 342.994 71.353C344.138 72.525 344.709 74.055 344.709 75.943V92.328H352.058V73.855C352.058 71.987 351.619 70.214 350.743 68.536C349.866 66.858 348.555 65.495 346.81 64.447H346.812Z" fill="black"/>
<path d="M378.125 63.846C376.17 63.007 373.859 62.588 371.19 62.588C369.322 62.588 367.383 62.845 365.371 63.36C363.359 63.875 361.449 64.732 359.638 65.934L361.639 71.167C362.897 70.233 364.261 69.541 365.728 69.094C367.196 68.646 368.674 68.422 370.161 68.422C371.762 68.422 373.082 68.67 374.121 69.166C375.16 69.662 375.933 70.353 376.438 71.239C376.943 72.126 377.195 73.16 377.195 74.342V74.971C374.23 74.734 371.613 74.724 369.389 74.971C366.815 75.257 364.7 75.815 363.041 76.644C361.383 77.474 360.153 78.517 359.352 79.775C358.551 81.033 358.151 82.463 358.151 84.065C358.151 85.934 358.575 87.549 359.423 88.912C360.271 90.276 361.449 91.329 362.956 92.072C364.462 92.816 366.197 93.187 368.16 93.187C370.257 93.187 372.145 92.834 373.822 92.129C375.5 91.424 376.815 90.404 377.769 89.069V92.329H384.232V74.256C384.232 71.607 383.703 69.419 382.645 67.693C381.587 65.967 380.08 64.686 378.127 63.847L378.125 63.846ZM376.237 84.792C375.598 85.698 374.745 86.398 373.678 86.894C372.61 87.39 371.4 87.638 370.045 87.638C368.463 87.638 367.214 87.3 366.299 86.623C365.384 85.946 364.926 84.979 364.926 83.72C364.926 82.882 365.208 82.147 365.77 81.519C366.332 80.89 367.181 80.399 368.316 80.046C369.449 79.693 370.884 79.499 372.619 79.46C373.965 79.43 375.493 79.519 377.194 79.718V81.576C377.194 82.815 376.875 83.887 376.236 84.793L376.237 84.792Z" fill="black"/>
<path d="M410.223 86.008C408.984 86.523 407.668 86.781 406.276 86.781C403.493 86.781 401.296 86.004 399.685 84.45C398.073 82.896 397.268 80.746 397.268 78.001C397.268 76.171 397.63 74.603 398.355 73.297C399.079 71.991 400.113 70.995 401.457 70.309C402.801 69.623 404.407 69.279 406.275 69.279C407.514 69.279 408.701 69.475 409.836 69.865C410.97 70.256 411.985 70.852 412.881 71.652L416.284 66.133C414.854 65.028 413.281 64.207 411.566 63.674C409.85 63.14 407.991 62.873 405.99 62.873C403.683 62.873 401.552 63.25 399.598 64.003C397.643 64.756 395.937 65.814 394.479 67.177C393.02 68.54 391.891 70.141 391.089 71.981C390.288 73.821 389.888 75.837 389.888 78.029C389.888 80.927 390.565 83.515 391.918 85.793C393.271 88.071 395.131 89.873 397.495 91.197C399.858 92.522 402.555 93.185 405.588 93.185C407.589 93.185 409.552 92.851 411.478 92.184C413.404 91.517 415.148 90.602 416.712 89.439L413.452 83.891C412.536 84.788 411.46 85.493 410.221 86.007L410.223 86.008Z" fill="black"/>
<path d="M448.685 68.536C447.808 66.858 446.497 65.495 444.752 64.447C443.008 63.399 440.82 62.874 438.189 62.874C436.168 62.874 434.281 63.313 432.527 64.189C431.425 64.741 430.432 65.473 429.525 66.349V51.15H422.176V92.328H429.525V76.543C429.525 75.133 429.801 73.903 430.353 72.854C430.906 71.806 431.688 70.996 432.699 70.424C433.709 69.852 434.881 69.566 436.215 69.566C438.218 69.585 439.79 70.181 440.934 71.353C442.078 72.525 442.649 74.055 442.649 75.943V92.328H449.998V73.855C449.998 71.987 449.559 70.214 448.683 68.536H448.685Z" fill="black"/>
<path d="M299.53 120.111C297.948 119.063 295.812 118.538 293.125 118.538C291.142 118.538 289.207 118.939 287.32 119.739C285.433 120.539 283.832 121.931 282.516 123.914C281.906 122.313 280.829 121.017 279.285 120.025C277.741 119.034 275.844 118.538 273.595 118.538C272.47 118.538 271.354 118.706 270.249 119.039C269.144 119.372 268.105 119.883 267.133 120.569C266.16 121.256 265.303 122.132 264.559 123.2V119.397H257.21V147.994H264.559V131.465C264.559 130.264 264.839 129.196 265.403 128.262C265.965 127.328 266.736 126.589 267.719 126.046C268.702 125.503 269.811 125.231 271.05 125.231C272.976 125.231 274.434 125.798 275.426 126.933C276.416 128.067 276.913 129.56 276.913 131.409V147.995H284.262V131.466C284.262 130.265 284.542 129.197 285.106 128.263C285.668 127.329 286.439 126.59 287.422 126.047C288.405 125.504 289.514 125.232 290.753 125.232C292.679 125.232 294.137 125.799 295.128 126.934C296.119 128.068 296.615 129.561 296.615 131.41V147.996H303.964V129.294C303.964 127.502 303.622 125.786 302.935 124.146C302.248 122.507 301.114 121.163 299.532 120.114L299.53 120.111Z" fill="black"/>
<path d="M330.027 119.511C328.072 118.672 325.761 118.253 323.092 118.253C321.224 118.253 319.285 118.51 317.273 119.025C315.261 119.54 313.351 120.397 311.54 121.599L313.541 126.832C314.799 125.898 316.163 125.206 317.63 124.759C319.098 124.311 320.576 124.087 322.063 124.087C323.664 124.087 324.984 124.335 326.023 124.831C327.062 125.327 327.835 126.018 328.34 126.904C328.845 127.791 329.097 128.826 329.097 130.007V130.636C326.132 130.399 323.515 130.389 321.291 130.636C318.717 130.922 316.602 131.48 314.943 132.309C313.285 133.139 312.055 134.182 311.254 135.44C310.453 136.698 310.053 138.128 310.053 139.729C310.053 141.598 310.477 143.214 311.325 144.576C312.173 145.94 313.351 146.993 314.858 147.736C316.364 148.48 318.099 148.851 320.062 148.851C322.159 148.851 324.047 148.498 325.724 147.793C327.402 147.088 328.717 146.067 329.671 144.733V147.993H336.134V129.92C336.134 127.27 335.605 125.082 334.547 123.357C333.489 121.632 331.982 120.35 330.029 119.511H330.027ZM328.14 140.458C327.501 141.363 326.648 142.064 325.581 142.559C324.513 143.056 323.303 143.303 321.948 143.303C320.366 143.303 319.117 142.966 318.202 142.288C317.287 141.61 316.829 140.644 316.829 139.385C316.829 138.547 317.111 137.813 317.673 137.184C318.235 136.555 319.084 136.065 320.219 135.711C321.352 135.358 322.787 135.164 324.522 135.126C325.868 135.096 327.396 135.185 329.097 135.384V137.241C329.097 138.48 328.778 139.553 328.139 140.458H328.14Z" fill="black"/>
<path d="M360.138 142.045C359.556 142.197 358.941 142.274 358.294 142.274C357.016 142.274 356.016 141.897 355.291 141.144C354.566 140.391 354.204 139.1 354.204 137.269V125.344H361.725V119.396H354.204V111.103H346.855V119.396H340.822V125.344H346.855V138.727C346.855 142.121 347.717 144.657 349.443 146.333C351.169 148.011 353.499 148.85 356.435 148.85C357.656 148.85 358.827 148.698 359.952 148.393C361.077 148.088 362.058 147.716 362.897 147.277L361.753 141.444C361.257 141.692 360.719 141.892 360.138 142.044V142.045Z" fill="black"/>
<path d="M386.689 141.444C386.193 141.692 385.655 141.892 385.074 142.044C384.492 142.196 383.877 142.273 383.23 142.273C381.952 142.273 380.952 141.896 380.227 141.143C379.502 140.39 379.14 139.099 379.14 137.268V125.343H386.661V119.395H379.14V111.102H371.791V119.395H365.758V125.343H371.791V138.726C371.791 142.12 372.653 144.656 374.379 146.332C376.105 148.01 378.435 148.849 381.371 148.849C382.592 148.849 383.763 148.697 384.888 148.392C386.013 148.087 386.994 147.715 387.833 147.276L386.689 141.443V141.444Z" fill="black"/>
<path d="M412.955 140.459C412.955 142.551 412.43 144.115 411.378 145.151C410.327 146.187 408.924 146.705 407.168 146.705C405.401 146.705 403.996 146.187 402.95 145.151C401.904 144.115 401.381 142.552 401.381 140.459V127.686H399.116V140.622C399.116 142.141 399.415 143.523 400.012 144.766C400.609 146.009 401.504 147.001 402.698 147.741C403.892 148.48 405.382 148.851 407.167 148.851C408.952 148.851 410.44 148.481 411.63 147.741C412.819 147.001 413.711 146.007 414.308 144.758C414.905 143.511 415.204 142.131 415.204 140.622V127.686H412.954L412.955 140.459Z" fill="black"/>
<path d="M422.56 127.094H420.37V148.407H422.56V127.094Z" fill="black"/>
<path d="M449.46 136.366C449.1 135.562 448.525 134.902 447.736 134.384C446.947 133.866 445.91 133.607 444.629 133.607C443.741 133.607 442.823 133.794 441.876 134.17C440.929 134.545 440.045 135.3 439.227 136.434C438.881 135.635 438.316 134.964 437.533 134.422C436.748 133.879 435.724 133.608 434.461 133.608C433.86 133.608 433.27 133.695 432.693 133.867C432.115 134.039 431.566 134.313 431.042 134.689C430.519 135.064 430.046 135.557 429.621 136.169V134.052H427.431V148.409H429.621V139.943C429.621 139.105 429.811 138.362 430.191 137.716C430.57 137.07 431.086 136.569 431.737 136.214C432.389 135.858 433.113 135.68 433.913 135.68C435.136 135.68 436.061 136.031 436.688 136.732C437.314 137.432 437.627 138.345 437.627 139.469V148.409H439.817V139.943C439.817 139.105 440.007 138.362 440.387 137.716C440.766 137.07 441.28 136.569 441.926 136.214C442.572 135.858 443.296 135.68 444.094 135.68C445.318 135.68 446.243 136.031 446.869 136.732C447.496 137.432 447.81 138.345 447.81 139.469V148.409H450V138.819C450 137.99 449.82 137.174 449.46 136.369V136.366Z" fill="black"/>
</svg>
