<svg width="600" height="209" viewBox="0 0 600 209" fill="none" xmlns="http://www.w3.org/2000/svg">
<rect x="1" y="1" width="206" height="206" fill="white" stroke="black" stroke-width="2"/>
<rect x="104" y="4" width="100" height="100" fill="black"/>
<rect x="4" y="104" width="100" height="100" fill="black"/>
<path d="M266.643 90.7754C264.624 89.2454 264.136 87.6992 265.178 86.1367L268.938 80.4727C270.174 78.6172 271.981 78.5195 274.357 80.1797C276.18 81.4492 278.557 82.7676 281.486 84.1348C284.449 85.4694 287.557 86.1367 290.812 86.1367C293.091 86.1367 295.288 85.8763 297.404 85.3555C299.52 84.8346 301.132 83.8255 302.238 82.3281C303.345 80.8307 303.898 79.0566 303.898 77.0059C303.898 75.541 303.654 74.2552 303.166 73.1484C302.678 72.0417 301.88 71.1302 300.773 70.4141C299.667 69.6979 298.527 69.0957 297.355 68.6074C295.305 67.7611 292.717 66.931 289.592 66.1172C286.499 65.2708 283.439 64.2617 280.412 63.0898C277.71 62.0482 275.236 60.6159 272.99 58.793C270.744 56.9701 269.003 54.9193 267.766 52.6406C266.529 50.362 265.91 47.3184 265.91 43.5098C265.91 38.985 267.375 35.1113 270.305 31.8887C273.234 28.666 276.604 26.599 280.412 25.6875C284.221 24.776 288.062 24.3203 291.936 24.3203C295.777 24.3203 299.732 24.9062 303.801 26.0781C307.902 27.25 310.995 28.7148 313.078 30.4727C315.129 32.1979 315.633 33.7604 314.592 35.1602L310.637 40.4824C309.302 42.3053 307.512 42.4518 305.266 40.9219C303.833 39.9453 301.864 38.8548 299.357 37.6504C296.883 36.446 294.296 35.8438 291.594 35.8438C289.673 35.8438 287.899 36.0065 286.271 36.332C284.676 36.6576 283.26 37.4388 282.023 38.6758C280.786 39.9128 280.168 41.4427 280.168 43.2656C280.168 45.0234 280.624 46.4557 281.535 47.5625C282.447 48.6367 283.456 49.4505 284.562 50.0039C285.669 50.5247 286.792 50.9642 287.932 51.3223C291.447 52.4616 294.589 53.4707 297.355 54.3496C300.122 55.196 302.678 56.14 305.021 57.1816C308.277 58.6465 310.767 60.1113 312.492 61.5762C314.217 63.041 315.633 65.043 316.74 67.582C317.88 70.1211 318.449 73.1484 318.449 76.6641C318.449 81.8724 316.789 86.1855 313.469 89.6035C310.148 92.9889 306.454 95.1699 302.385 96.1465C298.348 97.1556 294.41 97.6602 290.568 97.6602C284.904 97.6602 280.298 97.1068 276.75 96C273.202 94.9258 269.833 93.1842 266.643 90.7754ZM325.773 70.3652C325.773 62.0645 327.857 55.554 332.023 50.834C336.19 46.1139 342.587 43.7539 351.213 43.7539C356.258 43.7539 360.181 44.4212 362.98 45.7559C365.78 47.0905 368.026 49.0436 369.719 51.6152C370.728 53.1452 370.565 54.3496 369.23 55.2285L364.055 58.6465C362.59 59.623 361.304 59.2487 360.197 57.5234C359.644 56.6771 358.586 55.7656 357.023 54.7891C355.461 53.8125 353.524 53.3242 351.213 53.3242C347.535 53.3242 344.784 54.6263 342.961 57.2305C341.138 59.8021 340.227 64.1803 340.227 70.3652C340.227 76.5501 341.138 80.9447 342.961 83.5488C344.784 86.1204 347.535 87.4062 351.213 87.4062C353.85 87.4062 355.982 86.8529 357.609 85.7461C359.237 84.6393 360.767 83.207 362.199 81.4492C363.436 79.9518 364.738 79.7402 366.105 80.8145L370.646 84.3789C372.014 85.4531 372.095 86.8854 370.891 88.6758C369.621 90.5638 367.456 92.4193 364.396 94.2422C361.369 96.0651 356.975 96.9766 351.213 96.9766C342.587 96.9766 336.19 94.6165 332.023 89.8965C327.857 85.1764 325.773 78.666 325.773 70.3652ZM384.465 96C382.512 96 381.535 95.0234 381.535 93.0703V26.8594C381.535 24.9062 382.512 23.9297 384.465 23.9297H392.277C394.23 23.9297 395.207 24.9062 395.207 26.8594V46.5859C395.207 47.888 395.142 49.1901 395.012 50.4922H395.305C396.802 47.9206 398.706 46.1628 401.018 45.2188C403.329 44.2422 406.112 43.7539 409.367 43.7539C414.445 43.7539 418.645 45.349 421.965 48.5391C425.285 51.7292 426.945 57.556 426.945 66.0195V93.0703C426.945 95.0234 425.969 96 424.016 96H416.203C414.25 96 413.273 95.0234 413.273 93.0703V69.5352C413.273 62.4388 412.785 57.9629 411.809 56.1074C410.832 54.252 408.732 53.3242 405.51 53.3242C402.092 53.3242 399.52 54.6589 397.795 57.3281C396.07 59.9648 395.207 65.4661 395.207 73.832V93.0703C395.207 95.0234 394.23 96 392.277 96H384.465ZM437.395 82.3281C437.395 75.8177 440.503 71.0977 446.721 68.168C452.938 65.2383 460.035 63.6758 468.01 63.4805V61.5273C468.01 58.5326 467.261 56.4167 465.764 55.1797C464.266 53.9427 462.183 53.3242 459.514 53.3242C457.626 53.3242 455.949 53.6009 454.484 54.1543C453.052 54.6751 451.799 55.2936 450.725 56.0098C449.683 56.6934 448.739 57.3932 447.893 58.1094C446.395 59.4115 445.158 59.4766 444.182 58.3047L440.129 53.3242C439.12 52.0872 439.364 50.8177 440.861 49.5156C442.001 48.5065 443.319 47.6276 444.816 46.8789C446.346 46.1302 448.365 45.4303 450.871 44.7793C453.378 44.0957 456.633 43.7539 460.637 43.7539C467.408 43.7539 472.6 45.3164 476.213 48.4414C479.859 51.5664 481.682 56.1725 481.682 62.2598V93.0703C481.682 95.0234 480.705 96 478.752 96H470.744C468.986 96 468.107 95.0234 468.107 93.0703V91.6055H468.01C466.089 93.4609 463.778 94.8281 461.076 95.707C458.407 96.5534 455.949 96.9766 453.703 96.9766C448.365 96.9766 444.312 95.6745 441.545 93.0703C438.778 90.4336 437.395 86.8529 437.395 82.3281ZM451.848 82.0352C451.848 83.1745 452.076 84.1673 452.531 85.0137C452.987 85.8275 453.703 86.4297 454.68 86.8203C455.656 87.2109 456.747 87.4062 457.951 87.4062C459.611 87.4062 461.223 87.1784 462.785 86.7227C464.348 86.2669 466.089 85.1927 468.01 83.5V72.9043C462.541 73.5228 458.879 74.3203 457.023 75.2969C455.168 76.2734 453.833 77.2826 453.02 78.3242C452.238 79.3659 451.848 80.6029 451.848 82.0352ZM492.277 70.3652C492.277 62.0645 494.361 55.554 498.527 50.834C502.694 46.1139 509.09 43.7539 517.717 43.7539C522.762 43.7539 526.685 44.4212 529.484 45.7559C532.284 47.0905 534.53 49.0436 536.223 51.6152C537.232 53.1452 537.069 54.3496 535.734 55.2285L530.559 58.6465C529.094 59.623 527.808 59.2487 526.701 57.5234C526.148 56.6771 525.09 55.7656 523.527 54.7891C521.965 53.8125 520.028 53.3242 517.717 53.3242C514.038 53.3242 511.288 54.6263 509.465 57.2305C507.642 59.8021 506.73 64.1803 506.73 70.3652C506.73 76.5501 507.642 80.9447 509.465 83.5488C511.288 86.1204 514.038 87.4062 517.717 87.4062C520.354 87.4062 522.486 86.8529 524.113 85.7461C525.741 84.6393 527.271 83.207 528.703 81.4492C529.94 79.9518 531.242 79.7402 532.609 80.8145L537.15 84.3789C538.518 85.4531 538.599 86.8854 537.395 88.6758C536.125 90.5638 533.96 92.4193 530.9 94.2422C527.873 96.0651 523.479 96.9766 517.717 96.9766C509.09 96.9766 502.694 94.6165 498.527 89.8965C494.361 85.1764 492.277 78.666 492.277 70.3652ZM550.969 96C549.016 96 548.039 95.0234 548.039 93.0703V26.8594C548.039 24.9062 549.016 23.9297 550.969 23.9297H558.781C560.734 23.9297 561.711 24.9062 561.711 26.8594V46.5859C561.711 47.888 561.646 49.1901 561.516 50.4922H561.809C563.306 47.9206 565.21 46.1628 567.521 45.2188C569.833 44.2422 572.616 43.7539 575.871 43.7539C580.949 43.7539 585.148 45.349 588.469 48.5391C591.789 51.7292 593.449 57.556 593.449 66.0195V93.0703C593.449 95.0234 592.473 96 590.52 96H582.707C580.754 96 579.777 95.0234 579.777 93.0703V69.5352C579.777 62.4388 579.289 57.9629 578.312 56.1074C577.336 54.252 575.236 53.3242 572.014 53.3242C568.596 53.3242 566.024 54.6589 564.299 57.3281C562.574 59.9648 561.711 65.4661 561.711 73.832V93.0703C561.711 95.0234 560.734 96 558.781 96H550.969ZM267.57 186C265.617 186 264.641 185.023 264.641 183.07V137.66C264.641 135.707 265.617 134.73 267.57 134.73H275.285C277.238 134.73 278.215 135.707 278.215 137.66V140.492H278.41C279.354 138.409 280.949 136.765 283.195 135.561C285.441 134.356 287.541 133.754 289.494 133.754C293.4 133.754 296.428 134.665 298.576 136.488C300.757 138.311 302.255 140.346 303.068 142.592H303.264C306.096 138.913 308.651 136.521 310.93 135.414C313.241 134.307 316.187 133.754 319.768 133.754C324.585 133.754 328.638 135.349 331.926 138.539C335.246 141.729 336.906 147.556 336.906 156.02V183.07C336.906 185.023 335.93 186 333.977 186H326.164C324.211 186 323.234 185.023 323.234 183.07V159.535C323.234 152.439 322.746 147.963 321.77 146.107C320.826 144.252 319.133 143.324 316.691 143.324C314.413 143.324 312.329 144.659 310.441 147.328C308.553 149.997 307.609 155.499 307.609 163.832V183.07C307.609 185.023 306.633 186 304.68 186H296.867C294.914 186 293.938 185.023 293.938 183.07V159.535C293.938 152.439 293.449 147.963 292.473 146.107C291.529 144.252 289.836 143.324 287.395 143.324C285.116 143.324 283.033 144.659 281.145 147.328C279.257 149.965 278.312 155.466 278.312 163.832V183.07C278.312 185.023 277.336 186 275.383 186H267.57ZM347.355 172.328C347.355 165.818 350.464 161.098 356.682 158.168C362.899 155.238 369.995 153.676 377.971 153.48V151.527C377.971 148.533 377.222 146.417 375.725 145.18C374.227 143.943 372.144 143.324 369.475 143.324C367.587 143.324 365.91 143.601 364.445 144.154C363.013 144.675 361.76 145.294 360.686 146.01C359.644 146.693 358.7 147.393 357.854 148.109C356.356 149.411 355.119 149.477 354.143 148.305L350.09 143.324C349.081 142.087 349.325 140.818 350.822 139.516C351.962 138.507 353.28 137.628 354.777 136.879C356.307 136.13 358.326 135.43 360.832 134.779C363.339 134.096 366.594 133.754 370.598 133.754C377.368 133.754 382.561 135.316 386.174 138.441C389.82 141.566 391.643 146.173 391.643 152.26V183.07C391.643 185.023 390.666 186 388.713 186H380.705C378.947 186 378.068 185.023 378.068 183.07V181.605H377.971C376.05 183.461 373.739 184.828 371.037 185.707C368.368 186.553 365.91 186.977 363.664 186.977C358.326 186.977 354.273 185.674 351.506 183.07C348.739 180.434 347.355 176.853 347.355 172.328ZM361.809 172.035C361.809 173.174 362.036 174.167 362.492 175.014C362.948 175.827 363.664 176.43 364.641 176.82C365.617 177.211 366.708 177.406 367.912 177.406C369.572 177.406 371.184 177.178 372.746 176.723C374.309 176.267 376.05 175.193 377.971 173.5V162.904C372.502 163.523 368.84 164.32 366.984 165.297C365.129 166.273 363.794 167.283 362.98 168.324C362.199 169.366 361.809 170.603 361.809 172.035ZM403.264 144.496C401.343 144.496 400.383 143.682 400.383 142.055V137.172C400.383 135.544 401.343 134.73 403.264 134.73H406.584V133.021C406.584 131.557 406.926 130.222 407.609 129.018L411.369 122.426C412.085 121.189 412.932 120.57 413.908 120.57H417.326C419.279 120.57 420.256 121.547 420.256 123.5V134.73H428.166C430.087 134.73 431.047 135.544 431.047 137.172V142.055C431.047 143.682 430.087 144.496 428.166 144.496H420.256V168.715C420.256 172.035 420.484 174.428 420.939 175.893C421.428 177.325 422.665 178.041 424.65 178.041C425.66 178.041 426.799 177.878 428.068 177.553C429.338 177.195 430.331 176.853 431.047 176.527C432.186 176.007 432.935 176.381 433.293 177.65L434.758 183.217C435.051 184.324 434.628 185.137 433.488 185.658C432.414 186.146 430.933 186.586 429.045 186.977C427.189 187.4 425.318 187.611 423.43 187.611C418.775 187.611 414.803 186.651 411.516 184.73C408.228 182.81 406.584 178.855 406.584 172.865V144.496H403.264ZM442.229 144.496C440.308 144.496 439.348 143.682 439.348 142.055V137.172C439.348 135.544 440.308 134.73 442.229 134.73H445.549V133.021C445.549 131.557 445.891 130.222 446.574 129.018L450.334 122.426C451.05 121.189 451.896 120.57 452.873 120.57H456.291C458.244 120.57 459.221 121.547 459.221 123.5V134.73H467.131C469.051 134.73 470.012 135.544 470.012 137.172V142.055C470.012 143.682 469.051 144.496 467.131 144.496H459.221V168.715C459.221 172.035 459.449 174.428 459.904 175.893C460.393 177.325 461.63 178.041 463.615 178.041C464.624 178.041 465.764 177.878 467.033 177.553C468.303 177.195 469.296 176.853 470.012 176.527C471.151 176.007 471.9 176.381 472.258 177.65L473.723 183.217C474.016 184.324 473.592 185.137 472.453 185.658C471.379 186.146 469.898 186.586 468.01 186.977C466.154 187.4 464.283 187.611 462.395 187.611C457.74 187.611 453.768 186.651 450.48 184.73C447.193 182.81 445.549 178.855 445.549 172.865V144.496H442.229Z" fill="black"/>
<path d="M514.15 173.646V153.333C514.15 152.438 514.557 151.99 515.371 151.99H517.617C518.431 151.99 518.838 152.438 518.838 153.333V172.913C518.838 177.47 519.481 180.449 520.767 181.849C522.069 183.232 524.185 183.924 527.114 183.924C530.044 183.924 532.152 183.232 533.438 181.849C534.74 180.449 535.391 177.47 535.391 172.913V153.333C535.391 152.438 535.798 151.99 536.611 151.99H538.857C539.671 151.99 540.078 152.438 540.078 153.333V173.646C540.078 178.805 538.89 182.443 536.514 184.559C534.154 186.674 531.021 187.732 527.114 187.732C523.208 187.732 520.067 186.674 517.69 184.559C515.33 182.443 514.15 178.805 514.15 173.646ZM548.794 187C548.062 187 547.695 186.634 547.695 185.901V155.433C547.695 155.107 547.777 154.798 547.939 154.505L549.648 151.404C549.958 150.835 550.21 150.55 550.405 150.55H551.26C551.748 150.55 551.992 150.835 551.992 151.404V185.901C551.992 186.634 551.626 187 550.894 187H548.794ZM560.024 187C559.292 187 558.926 186.634 558.926 185.901V162.464C558.926 161.731 559.292 161.365 560.024 161.365H562.075C562.808 161.365 563.174 161.731 563.174 162.464V164.417H563.271C564.329 163.245 565.477 162.374 566.714 161.805C567.951 161.235 569.139 160.95 570.278 160.95C572.378 160.95 573.989 161.479 575.112 162.537C576.252 163.579 576.984 164.629 577.31 165.687H577.407C578.302 164.352 579.434 163.229 580.801 162.317C582.168 161.406 583.625 160.95 585.171 160.95C587.759 160.95 589.712 161.788 591.03 163.465C592.349 165.125 593.008 167.404 593.008 170.301V185.901C593.008 186.634 592.642 187 591.909 187H589.81C589.077 187 588.711 186.634 588.711 185.901V171.717C588.711 168.527 588.312 166.468 587.515 165.54C586.717 164.596 585.488 164.124 583.828 164.124C582.201 164.124 580.841 164.824 579.751 166.224C578.66 167.607 578.115 169.699 578.115 172.498V185.901C578.115 186.634 577.749 187 577.017 187H574.917C574.185 187 573.818 186.634 573.818 185.901V171.717C573.818 168.527 573.42 166.468 572.622 165.54C571.825 164.596 570.596 164.124 568.936 164.124C567.308 164.124 565.949 164.759 564.858 166.028C563.768 167.282 563.223 169.438 563.223 172.498V185.901C563.223 186.634 562.856 187 562.124 187H560.024Z" fill="black"/>
</svg>
