<svg width="518" height="374" viewBox="0 0 518 374" fill="none" xmlns="http://www.w3.org/2000/svg">
<path d="M22.5 354V22.5H277.5V354" stroke="black" stroke-width="5"/>
<mask id="mask0_7_66" style="mask-type:alpha" maskUnits="userSpaceOnUse" x="25" y="25" width="250" height="120">
<rect x="275" y="145" width="250" height="120" transform="rotate(180 275 145)" fill="url(#paint0_linear_7_66)"/>
</mask>
<g mask="url(#mask0_7_66)">
<rect x="275" y="145" width="250" height="120" transform="rotate(180 275 145)" fill="url(#paint1_linear_7_66)"/>
</g>
<rect x="25" y="354" width="329" height="120" transform="rotate(-90 25 354)" fill="url(#paint2_linear_7_66)"/>
<rect x="275" y="25" width="329" height="120" transform="rotate(90 275 25)" fill="url(#paint3_linear_7_66)"/>
<rect x="25" y="25" width="250" height="120" fill="url(#paint4_linear_7_66)"/>
<rect x="145" y="145" width="209" height="120" transform="rotate(90 145 145)" fill="url(#paint5_linear_7_66)"/>
<rect x="155" y="354" width="209" height="120" transform="rotate(-90 155 354)" fill="url(#paint6_linear_7_66)"/>
<line x1="25" y1="145.5" x2="145" y2="145.5" stroke="black"/>
<path opacity="0.75" d="M154.5 327.5L145.5 327.5L145.5 145.5L154.5 145.5L154.5 327.5Z" stroke="black"/>
<line x1="25" y1="171.5" x2="145" y2="171.5" stroke="black"/>
<line x1="25" y1="197.5" x2="145" y2="197.5" stroke="black"/>
<line x1="25" y1="223.5" x2="145" y2="223.5" stroke="black"/>
<line x1="25" y1="249.5" x2="145" y2="249.5" stroke="black"/>
<line x1="25" y1="275.5" x2="145" y2="275.5" stroke="black"/>
<line x1="25" y1="301.5" x2="145" y2="301.5" stroke="black"/>
<line x1="25" y1="327.5" x2="145" y2="327.5" stroke="black"/>
<line x1="155" y1="145.5" x2="275" y2="145.5" stroke="black"/>
<line x1="155" y1="171.5" x2="275" y2="171.5" stroke="black"/>
<line x1="155" y1="197.5" x2="275" y2="197.5" stroke="black"/>
<line x1="155" y1="223.5" x2="275" y2="223.5" stroke="black"/>
<line x1="155" y1="249.5" x2="275" y2="249.5" stroke="black"/>
<line x1="155" y1="275.5" x2="275" y2="275.5" stroke="black"/>
<line x1="155" y1="301.5" x2="275" y2="301.5" stroke="black"/>
<line x1="155" y1="327.5" x2="275" y2="327.5" stroke="black"/>
<rect x="349.5" y="171.5" width="27" height="27" fill="#48C78E" stroke="black"/>
<rect x="349.5" y="223.5" width="27" height="27" fill="#FFB70F" stroke="black"/>
<rect x="349.5" y="275.5" width="27" height="27" fill="#FF6685" stroke="black"/>
<path d="M388.057 189V180.273H389.114V188.062H393.17V189H388.057ZM396.597 189.153C396.182 189.153 395.805 189.075 395.467 188.919C395.129 188.76 394.861 188.531 394.662 188.233C394.463 187.932 394.364 187.568 394.364 187.142C394.364 186.767 394.438 186.463 394.585 186.23C394.733 185.994 394.93 185.81 395.178 185.676C395.425 185.543 395.697 185.443 395.996 185.378C396.297 185.31 396.599 185.256 396.903 185.216C397.301 185.165 397.624 185.126 397.871 185.101C398.121 185.072 398.303 185.026 398.416 184.96C398.533 184.895 398.591 184.781 398.591 184.619V184.585C398.591 184.165 398.476 183.838 398.246 183.605C398.018 183.372 397.673 183.256 397.21 183.256C396.73 183.256 396.354 183.361 396.081 183.571C395.808 183.781 395.616 184.006 395.506 184.244L394.551 183.903C394.722 183.506 394.949 183.196 395.233 182.974C395.52 182.75 395.832 182.594 396.17 182.506C396.511 182.415 396.847 182.369 397.176 182.369C397.386 182.369 397.628 182.395 397.901 182.446C398.176 182.494 398.442 182.595 398.697 182.749C398.956 182.902 399.17 183.134 399.341 183.443C399.511 183.753 399.597 184.168 399.597 184.688V189H398.591V188.114H398.54C398.472 188.256 398.358 188.408 398.199 188.57C398.04 188.732 397.828 188.869 397.564 188.983C397.3 189.097 396.977 189.153 396.597 189.153ZM396.75 188.25C397.148 188.25 397.483 188.172 397.756 188.016C398.031 187.859 398.239 187.658 398.378 187.411C398.52 187.163 398.591 186.903 398.591 186.631V185.71C398.548 185.761 398.455 185.808 398.31 185.851C398.168 185.891 398.003 185.926 397.815 185.957C397.631 185.986 397.45 186.011 397.274 186.034C397.101 186.054 396.96 186.071 396.852 186.085C396.591 186.119 396.347 186.175 396.119 186.251C395.895 186.325 395.713 186.437 395.574 186.588C395.438 186.736 395.369 186.937 395.369 187.193C395.369 187.543 395.499 187.807 395.757 187.986C396.018 188.162 396.349 188.25 396.75 188.25ZM405.557 186.324V182.455H406.563V189H405.557V187.892H405.489C405.336 188.224 405.097 188.507 404.773 188.74C404.449 188.97 404.04 189.085 403.546 189.085C403.137 189.085 402.773 188.996 402.455 188.817C402.137 188.635 401.887 188.362 401.705 187.999C401.523 187.632 401.432 187.17 401.432 186.614V182.455H402.438V186.545C402.438 187.023 402.571 187.403 402.838 187.688C403.108 187.972 403.452 188.114 403.87 188.114C404.12 188.114 404.374 188.05 404.632 187.922C404.894 187.794 405.113 187.598 405.289 187.334C405.468 187.07 405.557 186.733 405.557 186.324ZM411.32 182.455V183.307H407.791V182.455H411.32ZM408.848 189V181.551C408.848 181.176 408.936 180.864 409.112 180.614C409.288 180.364 409.517 180.176 409.798 180.051C410.08 179.926 410.376 179.864 410.689 179.864C410.936 179.864 411.138 179.884 411.294 179.923C411.45 179.963 411.567 180 411.643 180.034L411.354 180.903C411.303 180.886 411.232 180.865 411.141 180.839C411.053 180.814 410.936 180.801 410.791 180.801C410.459 180.801 410.219 180.885 410.071 181.053C409.926 181.22 409.854 181.466 409.854 181.79V189H408.848ZM415.204 189.136C414.573 189.136 414.029 188.997 413.572 188.719C413.117 188.438 412.766 188.045 412.519 187.543C412.275 187.037 412.153 186.449 412.153 185.778C412.153 185.108 412.275 184.517 412.519 184.006C412.766 183.491 413.11 183.091 413.55 182.804C413.994 182.514 414.511 182.369 415.102 182.369C415.442 182.369 415.779 182.426 416.112 182.54C416.444 182.653 416.746 182.838 417.019 183.094C417.292 183.347 417.509 183.682 417.671 184.099C417.833 184.517 417.914 185.031 417.914 185.642V186.068H412.869V185.199H416.891C416.891 184.83 416.817 184.5 416.67 184.21C416.525 183.92 416.317 183.692 416.048 183.524C415.781 183.357 415.465 183.273 415.102 183.273C414.701 183.273 414.354 183.372 414.062 183.571C413.772 183.767 413.549 184.023 413.393 184.338C413.237 184.653 413.158 184.991 413.158 185.352V185.932C413.158 186.426 413.244 186.845 413.414 187.189C413.587 187.53 413.827 187.79 414.134 187.969C414.441 188.145 414.798 188.233 415.204 188.233C415.468 188.233 415.707 188.196 415.92 188.122C416.136 188.045 416.322 187.932 416.478 187.781C416.634 187.628 416.755 187.437 416.84 187.21L417.812 187.483C417.71 187.812 417.538 188.102 417.296 188.352C417.055 188.599 416.756 188.793 416.401 188.932C416.046 189.068 415.647 189.136 415.204 189.136ZM420.45 185.062V189H419.444V182.455H420.415V183.477H420.501C420.654 183.145 420.887 182.878 421.2 182.676C421.512 182.472 421.915 182.369 422.41 182.369C422.853 182.369 423.241 182.46 423.573 182.642C423.906 182.821 424.164 183.094 424.349 183.46C424.533 183.824 424.626 184.284 424.626 184.841V189H423.62V184.909C423.62 184.395 423.487 183.994 423.219 183.707C422.952 183.418 422.586 183.273 422.12 183.273C421.799 183.273 421.512 183.342 421.259 183.482C421.009 183.621 420.812 183.824 420.667 184.091C420.522 184.358 420.45 184.682 420.45 185.062Z" fill="black"/>
<path d="M393.784 232.273H394.841V238.051C394.841 238.648 394.7 239.18 394.419 239.649C394.141 240.115 393.747 240.483 393.239 240.753C392.73 241.02 392.134 241.153 391.449 241.153C390.764 241.153 390.168 241.02 389.659 240.753C389.151 240.483 388.756 240.115 388.474 239.649C388.196 239.18 388.057 238.648 388.057 238.051V232.273H389.114V237.966C389.114 238.392 389.207 238.771 389.395 239.104C389.582 239.433 389.849 239.693 390.196 239.884C390.545 240.071 390.963 240.165 391.449 240.165C391.935 240.165 392.352 240.071 392.702 239.884C393.051 239.693 393.318 239.433 393.503 239.104C393.69 238.771 393.784 238.392 393.784 237.966V232.273ZM390.222 231.182C390.043 231.182 389.884 231.114 389.744 230.977C389.608 230.838 389.54 230.679 389.54 230.5C389.54 230.304 389.608 230.142 389.744 230.014C389.884 229.884 390.043 229.818 390.222 229.818C390.418 229.818 390.58 229.884 390.707 230.014C390.838 230.142 390.903 230.304 390.903 230.5C390.903 230.679 390.838 230.838 390.707 230.977C390.58 231.114 390.418 231.182 390.222 231.182ZM392.676 231.182C392.497 231.182 392.338 231.114 392.199 230.977C392.063 230.838 391.994 230.679 391.994 230.5C391.994 230.304 392.063 230.142 392.199 230.014C392.338 229.884 392.497 229.818 392.676 229.818C392.872 229.818 393.034 229.884 393.162 230.014C393.293 230.142 393.358 230.304 393.358 230.5C393.358 230.679 393.293 230.838 393.162 230.977C393.034 231.114 392.872 231.182 392.676 231.182ZM396.951 241V232.273H397.957V235.494H398.042C398.116 235.381 398.218 235.236 398.349 235.06C398.483 234.881 398.673 234.722 398.92 234.582C399.17 234.44 399.508 234.369 399.934 234.369C400.485 234.369 400.971 234.507 401.392 234.783C401.812 235.058 402.14 235.449 402.376 235.955C402.612 236.46 402.73 237.057 402.73 237.744C402.73 238.438 402.612 239.038 402.376 239.547C402.14 240.053 401.814 240.445 401.396 240.723C400.978 240.999 400.497 241.136 399.951 241.136C399.531 241.136 399.194 241.067 398.941 240.928C398.689 240.786 398.494 240.625 398.358 240.446C398.221 240.264 398.116 240.114 398.042 239.994H397.923V241H396.951ZM397.94 237.727C397.94 238.222 398.012 238.658 398.157 239.036C398.302 239.411 398.514 239.705 398.792 239.918C399.071 240.128 399.412 240.233 399.815 240.233C400.235 240.233 400.586 240.122 400.868 239.901C401.152 239.676 401.365 239.375 401.507 238.997C401.652 238.616 401.724 238.193 401.724 237.727C401.724 237.267 401.653 236.852 401.511 236.483C401.372 236.111 401.16 235.817 400.876 235.601C400.595 235.382 400.241 235.273 399.815 235.273C399.406 235.273 399.062 235.376 398.784 235.584C398.505 235.788 398.295 236.075 398.153 236.445C398.011 236.811 397.94 237.239 397.94 237.727ZM407.012 241.136C406.382 241.136 405.838 240.997 405.38 240.719C404.926 240.438 404.575 240.045 404.328 239.543C404.083 239.037 403.961 238.449 403.961 237.778C403.961 237.108 404.083 236.517 404.328 236.006C404.575 235.491 404.919 235.091 405.359 234.804C405.802 234.514 406.319 234.369 406.91 234.369C407.251 234.369 407.588 234.426 407.92 234.54C408.252 234.653 408.555 234.838 408.828 235.094C409.1 235.347 409.318 235.682 409.48 236.099C409.642 236.517 409.723 237.031 409.723 237.642V238.068H404.677V237.199H408.7C408.7 236.83 408.626 236.5 408.478 236.21C408.333 235.92 408.126 235.692 407.856 235.524C407.589 235.357 407.274 235.273 406.91 235.273C406.51 235.273 406.163 235.372 405.87 235.571C405.581 235.767 405.358 236.023 405.201 236.338C405.045 236.653 404.967 236.991 404.967 237.352V237.932C404.967 238.426 405.052 238.845 405.223 239.189C405.396 239.53 405.636 239.79 405.943 239.969C406.25 240.145 406.606 240.233 407.012 240.233C407.277 240.233 407.515 240.196 407.728 240.122C407.944 240.045 408.13 239.932 408.287 239.781C408.443 239.628 408.564 239.437 408.649 239.21L409.62 239.483C409.518 239.812 409.346 240.102 409.105 240.352C408.863 240.599 408.565 240.793 408.21 240.932C407.855 241.068 407.456 241.136 407.012 241.136ZM411.252 241V234.455H412.224V235.443H412.292C412.412 235.119 412.627 234.857 412.94 234.655C413.252 234.453 413.605 234.352 413.997 234.352C414.071 234.352 414.163 234.354 414.274 234.357C414.385 234.359 414.468 234.364 414.525 234.369V235.392C414.491 235.384 414.413 235.371 414.291 235.354C414.172 235.334 414.045 235.324 413.912 235.324C413.593 235.324 413.309 235.391 413.059 235.524C412.812 235.655 412.616 235.837 412.471 236.07C412.329 236.3 412.258 236.562 412.258 236.858V241H411.252ZM416.723 237.062V241H415.717V232.273H416.723V235.477H416.808C416.962 235.139 417.192 234.871 417.499 234.672C417.808 234.47 418.22 234.369 418.734 234.369C419.18 234.369 419.571 234.459 419.906 234.638C420.241 234.814 420.501 235.085 420.686 235.452C420.874 235.815 420.967 236.278 420.967 236.841V241H419.962V236.909C419.962 236.389 419.827 235.987 419.557 235.703C419.29 235.416 418.919 235.273 418.445 235.273C418.115 235.273 417.82 235.342 417.558 235.482C417.3 235.621 417.095 235.824 416.945 236.091C416.797 236.358 416.723 236.682 416.723 237.062ZM425.466 241.136C424.875 241.136 424.357 240.996 423.911 240.714C423.468 240.433 423.121 240.04 422.871 239.534C422.624 239.028 422.5 238.437 422.5 237.761C422.5 237.08 422.624 236.484 422.871 235.976C423.121 235.467 423.468 235.072 423.911 234.791C424.357 234.51 424.875 234.369 425.466 234.369C426.057 234.369 426.574 234.51 427.017 234.791C427.463 235.072 427.81 235.467 428.057 235.976C428.307 236.484 428.432 237.08 428.432 237.761C428.432 238.437 428.307 239.028 428.057 239.534C427.81 240.04 427.463 240.433 427.017 240.714C426.574 240.996 426.057 241.136 425.466 241.136ZM425.466 240.233C425.915 240.233 426.284 240.118 426.574 239.888C426.864 239.658 427.078 239.355 427.218 238.98C427.357 238.605 427.426 238.199 427.426 237.761C427.426 237.324 427.357 236.916 427.218 236.538C427.078 236.161 426.864 235.855 426.574 235.622C426.284 235.389 425.915 235.273 425.466 235.273C425.017 235.273 424.648 235.389 424.358 235.622C424.069 235.855 423.854 236.161 423.715 236.538C423.576 236.916 423.506 237.324 423.506 237.761C423.506 238.199 423.576 238.605 423.715 238.98C423.854 239.355 424.069 239.658 424.358 239.888C424.648 240.118 425.017 240.233 425.466 240.233ZM430.973 232.273V241H429.967V232.273H430.973ZM435.559 241.136C434.929 241.136 434.385 240.997 433.927 240.719C433.473 240.438 433.122 240.045 432.875 239.543C432.63 239.037 432.508 238.449 432.508 237.778C432.508 237.108 432.63 236.517 432.875 236.006C433.122 235.491 433.466 235.091 433.906 234.804C434.349 234.514 434.866 234.369 435.457 234.369C435.798 234.369 436.135 234.426 436.467 234.54C436.799 234.653 437.102 234.838 437.375 235.094C437.647 235.347 437.865 235.682 438.027 236.099C438.189 236.517 438.27 237.031 438.27 237.642V238.068H433.224V237.199H437.247C437.247 236.83 437.173 236.5 437.025 236.21C436.88 235.92 436.673 235.692 436.403 235.524C436.136 235.357 435.821 235.273 435.457 235.273C435.056 235.273 434.71 235.372 434.417 235.571C434.127 235.767 433.904 236.023 433.748 236.338C433.592 236.653 433.514 236.991 433.514 237.352V237.932C433.514 238.426 433.599 238.845 433.77 239.189C433.943 239.53 434.183 239.79 434.49 239.969C434.797 240.145 435.153 240.233 435.559 240.233C435.824 240.233 436.062 240.196 436.275 240.122C436.491 240.045 436.677 239.932 436.833 239.781C436.99 239.628 437.11 239.437 437.196 239.21L438.167 239.483C438.065 239.812 437.893 240.102 437.652 240.352C437.41 240.599 437.112 240.793 436.757 240.932C436.402 241.068 436.002 241.136 435.559 241.136ZM440.805 237.062V241H439.799V234.455H440.771V235.477H440.856C441.01 235.145 441.243 234.878 441.555 234.676C441.868 234.472 442.271 234.369 442.765 234.369C443.208 234.369 443.596 234.46 443.929 234.642C444.261 234.821 444.52 235.094 444.704 235.46C444.889 235.824 444.981 236.284 444.981 236.841V241H443.975V236.909C443.975 236.395 443.842 235.994 443.575 235.707C443.308 235.418 442.941 235.273 442.475 235.273C442.154 235.273 441.868 235.342 441.615 235.482C441.365 235.621 441.167 235.824 441.022 236.091C440.877 236.358 440.805 236.682 440.805 237.062Z" fill="black"/>
<path d="M388.415 284.273L391.006 291.619H391.108L393.699 284.273H394.807L391.602 293H390.511L387.307 284.273H388.415ZM398.165 293.136C397.534 293.136 396.99 292.997 396.533 292.719C396.078 292.438 395.727 292.045 395.48 291.543C395.236 291.037 395.114 290.449 395.114 289.778C395.114 289.108 395.236 288.517 395.48 288.006C395.727 287.491 396.071 287.091 396.511 286.804C396.955 286.514 397.472 286.369 398.062 286.369C398.403 286.369 398.74 286.426 399.072 286.54C399.405 286.653 399.707 286.838 399.98 287.094C400.253 287.347 400.47 287.682 400.632 288.099C400.794 288.517 400.875 289.031 400.875 289.642V290.068H395.83V289.199H399.852C399.852 288.83 399.778 288.5 399.631 288.21C399.486 287.92 399.278 287.692 399.009 287.524C398.741 287.357 398.426 287.273 398.062 287.273C397.662 287.273 397.315 287.372 397.023 287.571C396.733 287.767 396.51 288.023 396.354 288.338C396.197 288.653 396.119 288.991 396.119 289.352V289.932C396.119 290.426 396.205 290.845 396.375 291.189C396.548 291.53 396.788 291.79 397.095 291.969C397.402 292.145 397.759 292.233 398.165 292.233C398.429 292.233 398.668 292.196 398.881 292.122C399.097 292.045 399.283 291.932 399.439 291.781C399.595 291.628 399.716 291.437 399.801 291.21L400.773 291.483C400.67 291.812 400.499 292.102 400.257 292.352C400.016 292.599 399.717 292.793 399.362 292.932C399.007 293.068 398.608 293.136 398.165 293.136ZM402.405 293V286.455H403.376V287.443H403.445C403.564 287.119 403.78 286.857 404.092 286.655C404.405 286.453 404.757 286.352 405.149 286.352C405.223 286.352 405.315 286.354 405.426 286.357C405.537 286.359 405.621 286.364 405.678 286.369V287.392C405.643 287.384 405.565 287.371 405.443 287.354C405.324 287.334 405.197 287.324 405.064 287.324C404.746 287.324 404.462 287.391 404.212 287.524C403.964 287.655 403.768 287.837 403.624 288.07C403.482 288.3 403.411 288.562 403.411 288.858V293H402.405ZM411.506 287.92L410.603 288.176C410.546 288.026 410.462 287.879 410.351 287.737C410.243 287.592 410.096 287.473 409.908 287.379C409.721 287.286 409.48 287.239 409.188 287.239C408.787 287.239 408.453 287.331 408.186 287.516C407.922 287.697 407.79 287.929 407.79 288.21C407.79 288.46 407.881 288.658 408.063 288.803C408.245 288.947 408.529 289.068 408.915 289.165L409.887 289.403C410.472 289.545 410.908 289.763 411.195 290.055C411.482 290.345 411.625 290.719 411.625 291.176C411.625 291.551 411.517 291.886 411.301 292.182C411.088 292.477 410.79 292.71 410.407 292.881C410.023 293.051 409.577 293.136 409.069 293.136C408.401 293.136 407.848 292.991 407.411 292.702C406.973 292.412 406.696 291.989 406.58 291.432L407.534 291.193C407.625 291.545 407.797 291.81 408.05 291.986C408.306 292.162 408.64 292.25 409.051 292.25C409.52 292.25 409.892 292.151 410.168 291.952C410.446 291.75 410.586 291.509 410.586 291.227C410.586 291 410.506 290.81 410.347 290.656C410.188 290.5 409.944 290.384 409.614 290.307L408.523 290.051C407.924 289.909 407.483 289.689 407.202 289.391C406.924 289.089 406.784 288.713 406.784 288.261C406.784 287.892 406.888 287.565 407.096 287.281C407.306 286.997 407.591 286.774 407.952 286.612C408.316 286.45 408.728 286.369 409.188 286.369C409.836 286.369 410.344 286.511 410.713 286.795C411.086 287.08 411.35 287.455 411.506 287.92ZM415.798 293.136C415.185 293.136 414.656 292.991 414.213 292.702C413.77 292.412 413.429 292.013 413.19 291.504C412.952 290.996 412.832 290.415 412.832 289.761C412.832 289.097 412.955 288.51 413.199 288.001C413.446 287.49 413.79 287.091 414.23 286.804C414.673 286.514 415.19 286.369 415.781 286.369C416.241 286.369 416.656 286.455 417.026 286.625C417.395 286.795 417.697 287.034 417.933 287.341C418.169 287.648 418.315 288.006 418.372 288.415H417.366C417.29 288.116 417.119 287.852 416.855 287.622C416.594 287.389 416.241 287.273 415.798 287.273C415.406 287.273 415.063 287.375 414.767 287.58C414.474 287.781 414.246 288.067 414.081 288.436C413.919 288.803 413.838 289.233 413.838 289.727C413.838 290.233 413.918 290.673 414.077 291.048C414.239 291.423 414.466 291.714 414.759 291.922C415.054 292.129 415.401 292.233 415.798 292.233C416.06 292.233 416.297 292.188 416.51 292.097C416.723 292.006 416.903 291.875 417.051 291.705C417.199 291.534 417.304 291.33 417.366 291.091H418.372C418.315 291.477 418.175 291.825 417.95 292.135C417.729 292.442 417.435 292.686 417.068 292.868C416.705 293.047 416.281 293.136 415.798 293.136ZM420.848 289.062V293H419.842V284.273H420.848V287.477H420.933C421.087 287.139 421.317 286.871 421.624 286.672C421.933 286.47 422.345 286.369 422.859 286.369C423.305 286.369 423.696 286.459 424.031 286.638C424.366 286.814 424.626 287.085 424.811 287.452C424.999 287.815 425.092 288.278 425.092 288.841V293H424.087V288.909C424.087 288.389 423.952 287.987 423.682 287.703C423.415 287.416 423.044 287.273 422.57 287.273C422.24 287.273 421.945 287.342 421.683 287.482C421.425 287.621 421.22 287.824 421.07 288.091C420.922 288.358 420.848 288.682 420.848 289.062ZM427.938 289.062V293H426.932V286.455H427.904V287.477H427.989C428.142 287.145 428.375 286.878 428.688 286.676C429 286.472 429.404 286.369 429.898 286.369C430.341 286.369 430.729 286.46 431.061 286.642C431.394 286.821 431.652 287.094 431.837 287.46C432.022 287.824 432.114 288.284 432.114 288.841V293H431.108V288.909C431.108 288.395 430.975 287.994 430.708 287.707C430.441 287.418 430.074 287.273 429.608 287.273C429.287 287.273 429 287.342 428.748 287.482C428.498 287.621 428.3 287.824 428.155 288.091C428.01 288.358 427.938 288.682 427.938 289.062ZM435.878 293.153C435.463 293.153 435.087 293.075 434.749 292.919C434.411 292.76 434.142 292.531 433.943 292.233C433.744 291.932 433.645 291.568 433.645 291.142C433.645 290.767 433.719 290.463 433.866 290.23C434.014 289.994 434.212 289.81 434.459 289.676C434.706 289.543 434.979 289.443 435.277 289.378C435.578 289.31 435.881 289.256 436.185 289.216C436.582 289.165 436.905 289.126 437.152 289.101C437.402 289.072 437.584 289.026 437.697 288.96C437.814 288.895 437.872 288.781 437.872 288.619V288.585C437.872 288.165 437.757 287.838 437.527 287.605C437.3 287.372 436.955 287.256 436.491 287.256C436.011 287.256 435.635 287.361 435.362 287.571C435.089 287.781 434.898 288.006 434.787 288.244L433.832 287.903C434.003 287.506 434.23 287.196 434.514 286.974C434.801 286.75 435.114 286.594 435.452 286.506C435.793 286.415 436.128 286.369 436.457 286.369C436.668 286.369 436.909 286.395 437.182 286.446C437.457 286.494 437.723 286.595 437.979 286.749C438.237 286.902 438.452 287.134 438.622 287.443C438.793 287.753 438.878 288.168 438.878 288.688V293H437.872V292.114H437.821C437.753 292.256 437.639 292.408 437.48 292.57C437.321 292.732 437.109 292.869 436.845 292.983C436.581 293.097 436.259 293.153 435.878 293.153ZM436.031 292.25C436.429 292.25 436.764 292.172 437.037 292.016C437.313 291.859 437.52 291.658 437.659 291.411C437.801 291.163 437.872 290.903 437.872 290.631V289.71C437.83 289.761 437.736 289.808 437.591 289.851C437.449 289.891 437.284 289.926 437.097 289.957C436.912 289.986 436.732 290.011 436.555 290.034C436.382 290.054 436.241 290.071 436.134 290.085C435.872 290.119 435.628 290.175 435.401 290.251C435.176 290.325 434.994 290.437 434.855 290.588C434.719 290.736 434.651 290.937 434.651 291.193C434.651 291.543 434.78 291.807 435.038 291.986C435.3 292.162 435.631 292.25 436.031 292.25ZM444.838 290.324V286.455H445.844V293H444.838V291.892H444.77C444.617 292.224 444.378 292.507 444.054 292.74C443.73 292.97 443.321 293.085 442.827 293.085C442.418 293.085 442.054 292.996 441.736 292.817C441.418 292.635 441.168 292.362 440.986 291.999C440.804 291.632 440.713 291.17 440.713 290.614V286.455H441.719V290.545C441.719 291.023 441.853 291.403 442.12 291.688C442.39 291.972 442.733 292.114 443.151 292.114C443.401 292.114 443.655 292.05 443.914 291.922C444.175 291.794 444.394 291.598 444.57 291.334C444.749 291.07 444.838 290.733 444.838 290.324ZM450.601 286.455V287.307H447.072V286.455H450.601ZM448.129 293V285.551C448.129 285.176 448.217 284.864 448.393 284.614C448.57 284.364 448.798 284.176 449.08 284.051C449.361 283.926 449.658 283.864 449.97 283.864C450.217 283.864 450.419 283.884 450.575 283.923C450.732 283.963 450.848 284 450.925 284.034L450.635 284.903C450.584 284.886 450.513 284.865 450.422 284.839C450.334 284.814 450.217 284.801 450.072 284.801C449.74 284.801 449.5 284.885 449.352 285.053C449.207 285.22 449.135 285.466 449.135 285.79V293H448.129ZM454.485 293.136C453.854 293.136 453.31 292.997 452.853 292.719C452.398 292.438 452.048 292.045 451.8 291.543C451.556 291.037 451.434 290.449 451.434 289.778C451.434 289.108 451.556 288.517 451.8 288.006C452.048 287.491 452.391 287.091 452.832 286.804C453.275 286.514 453.792 286.369 454.383 286.369C454.724 286.369 455.06 286.426 455.393 286.54C455.725 286.653 456.028 286.838 456.3 287.094C456.573 287.347 456.79 287.682 456.952 288.099C457.114 288.517 457.195 289.031 457.195 289.642V290.068H452.15V289.199H456.173C456.173 288.83 456.099 288.5 455.951 288.21C455.806 287.92 455.599 287.692 455.329 287.524C455.062 287.357 454.746 287.273 454.383 287.273C453.982 287.273 453.636 287.372 453.343 287.571C453.053 287.767 452.83 288.023 452.674 288.338C452.518 288.653 452.44 288.991 452.44 289.352V289.932C452.44 290.426 452.525 290.845 452.695 291.189C452.869 291.53 453.109 291.79 453.415 291.969C453.722 292.145 454.079 292.233 454.485 292.233C454.749 292.233 454.988 292.196 455.201 292.122C455.417 292.045 455.603 291.932 455.759 291.781C455.915 291.628 456.036 291.437 456.121 291.21L457.093 291.483C456.991 291.812 456.819 292.102 456.577 292.352C456.336 292.599 456.038 292.793 455.683 292.932C455.327 293.068 454.928 293.136 454.485 293.136ZM459.731 289.062V293H458.725V286.455H459.697V287.477H459.782C459.935 287.145 460.168 286.878 460.481 286.676C460.793 286.472 461.197 286.369 461.691 286.369C462.134 286.369 462.522 286.46 462.854 286.642C463.187 286.821 463.445 287.094 463.63 287.46C463.815 287.824 463.907 288.284 463.907 288.841V293H462.901V288.909C462.901 288.395 462.768 287.994 462.501 287.707C462.234 287.418 461.867 287.273 461.401 287.273C461.08 287.273 460.793 287.342 460.54 287.482C460.29 287.621 460.093 287.824 459.948 288.091C459.803 288.358 459.731 288.682 459.731 289.062Z" fill="black"/>
<defs>
<linearGradient id="paint0_linear_7_66" x1="525" y1="205" x2="275" y2="205" gradientUnits="userSpaceOnUse">
<stop stop-color="white" stop-opacity="0"/>
<stop offset="0.5"/>
<stop offset="1" stop-color="white" stop-opacity="0"/>
</linearGradient>
<linearGradient id="paint1_linear_7_66" x1="400" y1="145" x2="400" y2="265" gradientUnits="userSpaceOnUse">
<stop stop-color="#48C78E"/>
<stop offset="1" stop-color="white" stop-opacity="0"/>
</linearGradient>
<linearGradient id="paint2_linear_7_66" x1="189.5" y1="354" x2="189.5" y2="474" gradientUnits="userSpaceOnUse">
<stop stop-color="#FFB70F"/>
<stop offset="0.75" stop-color="white" stop-opacity="0"/>
</linearGradient>
<linearGradient id="paint3_linear_7_66" x1="439.5" y1="25" x2="439.5" y2="145" gradientUnits="userSpaceOnUse">
<stop stop-color="#FFB70F"/>
<stop offset="0.75" stop-color="white" stop-opacity="0"/>
</linearGradient>
<linearGradient id="paint4_linear_7_66" x1="150" y1="25" x2="150" y2="145" gradientUnits="userSpaceOnUse">
<stop stop-color="#FF6685"/>
<stop offset="0.5" stop-color="white" stop-opacity="0"/>
</linearGradient>
<linearGradient id="paint5_linear_7_66" x1="249.5" y1="145" x2="249.5" y2="265" gradientUnits="userSpaceOnUse">
<stop stop-color="#48C78E"/>
<stop offset="1" stop-color="white" stop-opacity="0"/>
</linearGradient>
<linearGradient id="paint6_linear_7_66" x1="259.5" y1="354" x2="259.5" y2="474" gradientUnits="userSpaceOnUse">
<stop stop-color="#48C78E"/>
<stop offset="1" stop-color="white" stop-opacity="0"/>
</linearGradient>
</defs>
</svg>
