<svg width="652" height="412" viewBox="0 0 652 412" fill="none" xmlns="http://www.w3.org/2000/svg">
<path d="M232.284 133.095H218.819V144.703H232.284V133.095Z" fill="#21409A"/>
<path d="M256.379 123.079V149.096L237.954 145.426V130.834L256.379 123.079Z" fill="#0074BC"/>
<path d="M265.085 119.415V150.831L282.093 154.22V112.256L265.085 119.415Z" fill="#0074BC"/>
<path d="M307.807 101.433V159.342L292.217 156.236V107.995L307.807 101.433Z" fill="#0074BC"/>
<path d="M319.348 96.575V161.64L333.521 164.464V90.61L319.348 96.575Z" fill="#3C9CD7"/>
<path d="M359.235 79.787V169.587L346.479 167.046V85.156L359.235 79.787Z" fill="#3C9CD7"/>
<path d="M373.611 73.736V172.451L384.95 174.71V68.964L373.611 73.736Z" fill="#3C9CD7"/>
<path d="M409.955 58.439V179.691L401.451 177.997V62.018L409.955 58.439Z" fill="#3C9CD7"/>
<path d="M429.292 50.3V183.543L434.961 184.672V47.782L434.176 48.244L429.292 50.3Z" fill="#3C9CD7"/>
<path d="M213.15 131.979V146.971L194.725 154.718V128.234L213.15 131.979Z" fill="#0074BC"/>
<path d="M170.453 123.301V164.921L186.044 158.366V126.469L170.453 123.301Z" fill="#0074BC"/>
<path d="M158.938 120.961V169.763L146.182 175.126V118.369L158.938 120.961Z" fill="#3C9CD7"/>
<path d="M122.619 113.58V185.033L131.123 181.458V115.308L122.619 113.58Z" fill="#3C9CD7"/>
<path d="M104.016 109.8V192.854L98.347 195.238V108.648L104.016 109.8Z" fill="#3C9CD7"/>
<path d="M529.142 184.856H515.56V277.627H529.142V184.856ZM458.797 239.058C459.053 229.447 460.719 220.222 473.917 220.222C487.243 220.222 488.525 229.319 488.909 239.058H458.797ZM501.595 244.055C501.595 222.144 494.931 210.483 474.302 210.483C453.8 210.483 445.471 222.144 445.471 244.055C445.471 266.991 451.237 279.164 472.251 279.164C485.321 279.164 493.778 277.242 497.494 275.961L496.725 265.966C493.394 267.248 485.065 268.657 477.377 268.657C461.36 268.657 459.053 258.919 458.925 247.643L501.338 247.515C501.338 247.002 501.595 244.696 501.595 244.055ZM434.961 267.632H401.137L434.837 222.016V212.021H386.145V222.016H418.82L384.992 267.632V277.627H434.961V267.632ZM371.922 244.055C371.922 218.3 368.078 210.483 344.245 210.483C333.353 210.483 323.102 212.662 316.823 214.712V277.627H330.406V223.041C333.994 222.016 338.991 221.119 343.476 221.119C355.392 221.119 358.34 225.347 358.34 244.055V277.627H371.922V244.055ZM260.061 239.058C260.317 229.447 261.983 220.222 275.181 220.222C288.507 220.222 289.788 229.319 290.173 239.058H260.061ZM302.858 244.055C302.858 222.144 296.195 210.483 275.565 210.483C255.063 210.483 246.734 222.144 246.734 244.055C246.734 266.991 252.5 279.164 273.515 279.164C286.585 279.164 295.042 277.242 298.758 275.961L297.989 265.966C294.657 267.248 286.328 268.657 278.64 268.657C262.623 268.657 260.317 258.919 260.189 247.643L302.602 247.515C302.602 247.002 302.858 244.696 302.858 244.055ZM218.801 266.863C216.622 267.76 210.087 268.785 204.065 268.785C188.945 268.785 187.664 256.612 187.664 244.055C187.664 232.523 189.329 220.862 204.065 220.862C210.087 220.862 215.854 221.887 218.801 223.041V266.863ZM232.255 184.856H218.801V212.918C215.213 211.765 208.422 210.483 202.143 210.483C183.435 210.483 173.825 221.759 173.825 244.055C173.825 267.12 180.744 279.164 203.296 279.164C215.982 279.164 226.361 277.242 232.255 274.936V184.856Z" fill="#ED1C24"/>
<path d="M525.791 328.828C524.785 329.193 522.316 329.651 519.893 329.651C513.813 329.651 513.31 325.125 513.31 320.508C513.31 315.937 514.133 311.365 519.893 311.365C522.225 311.365 524.374 311.777 525.791 312.143V328.828ZM529.213 309.951C527.206 309.222 523.825 308.538 520.076 308.538C512.945 308.538 509.797 312.6 509.797 320.508C509.797 328.416 511.895 332.478 519.482 332.478C522.271 332.478 524.785 331.84 525.791 331.52L525.837 334.994C525.882 338.469 523.642 339.887 519.482 339.887C516.51 339.887 513.082 339.155 512.032 338.744L511.758 341.575C512.808 341.894 515.779 342.715 520.625 342.715C525.105 342.715 529.213 340.936 529.213 335.268V309.951ZM503.805 309.086H500.428V332.478H503.805V309.086ZM504.353 302.457C504.353 301.088 503.714 300.22 502.117 300.22C500.52 300.22 499.88 301.088 499.88 302.457C499.88 303.917 500.519 304.83 502.117 304.83C503.715 304.83 504.353 303.917 504.353 302.457ZM494.208 330.016C493.843 330.108 492.06 330.199 491.055 330.199C488.13 330.199 487.353 328.919 487.353 326.999V311.822H494.025V309.086H487.357L487.353 303.511H483.977V326.679C483.977 330.929 484.981 333.027 490.644 333.027C491.923 333.027 493.98 332.844 494.482 332.662L494.208 330.016ZM478.488 308.72C478.168 308.674 476.843 308.538 475.38 308.538C472.41 308.538 469.169 309.45 467.937 309.997V332.478H471.313V312.234C472.044 311.959 473.827 311.502 475.7 311.502C476.706 311.502 477.94 311.594 478.214 311.639L478.488 308.72ZM446.682 318.911C446.819 314.978 447.367 311.228 452.717 311.228C458.067 311.228 458.66 314.933 458.798 318.911H446.682ZM462.082 320.507C462.082 312.6 459.847 308.538 452.854 308.538C445.997 308.538 443.26 312.6 443.26 320.507C443.26 328.736 445.176 333.027 452.442 333.027C456.832 333.027 459.528 332.343 460.668 331.932L460.394 329.147C459.254 329.65 456.237 330.153 453.54 330.153C447.459 330.153 446.727 325.992 446.682 321.373L462.037 321.328C462.037 321.237 462.082 320.689 462.082 320.507ZM439.142 299.214C438.776 299.077 437.131 298.849 435.806 298.849C429.138 298.849 428.637 302.82 428.637 307.119V332.478H432.016V311.822H438.685V309.086H432.013V306.799C432.013 303.644 432.561 301.677 435.988 301.677C436.994 301.677 438.365 301.768 438.867 301.86L439.142 299.214ZM411.04 329.742H397.925L410.629 311.731V309.086H394.36V311.822H406.745L393.949 329.833V332.478H411.04V329.742ZM389.651 330.016C389.285 330.108 387.503 330.199 386.497 330.199C383.573 330.199 382.796 328.919 382.796 326.999V311.822H389.468V309.086H382.799L382.796 303.511H379.42V326.679C379.42 330.929 380.423 333.027 386.086 333.027C387.366 333.027 389.422 332.844 389.925 332.662L389.651 330.016ZM368.863 329.513C367.354 329.879 365.114 330.29 363.194 330.29C358.484 330.29 357.478 328.736 357.478 326.038C357.478 323.386 358.621 320.916 365.983 320.916H368.863V329.513ZM372.239 315.939C372.239 310.362 369.821 308.538 364.245 308.538C360.267 308.538 357.159 309.359 356.064 309.723L356.338 312.417C357.57 311.914 360.176 311.32 362.782 311.32C367.766 311.32 368.863 313.012 368.863 316.122V318.546H365.891C356.748 318.546 354.102 321.877 354.102 326.129C354.102 330.746 356.155 333.027 362.965 333.027C366.623 333.027 370.095 332.251 372.239 331.522V315.939ZM349.664 326.176C349.664 321.239 347.429 319.959 341.853 319.045C337.646 318.359 336.457 317.491 336.457 314.885C336.457 312.782 337.509 311.274 341.853 311.274C344.551 311.274 347.064 312.005 348.478 312.417L348.752 309.723C347.429 309.13 344.642 308.538 341.67 308.538C336.457 308.538 333.127 310.407 333.127 315.068C333.127 319.685 335.134 321.056 340.481 321.879C344.688 322.519 346.243 323.525 346.243 326.542C346.243 329.056 344.825 330.29 340.481 330.29C337.783 330.29 335.18 329.605 333.583 329.102L333.309 331.841C334.724 332.479 337.829 333.027 340.664 333.027C346.516 333.027 349.664 331.339 349.664 326.176ZM327.272 320.505C327.272 311.32 325.995 308.538 317.998 308.538C314.477 308.538 311.142 309.313 309.089 310.043V332.478H312.465V312.142C313.883 311.777 316.032 311.411 317.815 311.411C322.661 311.411 323.896 313.056 323.896 320.505V332.478H327.272V320.505ZM301.773 309.086H298.396V332.478H301.773V309.086ZM302.321 302.457C302.321 301.088 301.682 300.22 300.084 300.22C298.486 300.22 297.848 301.088 297.848 302.457C297.848 303.917 298.487 304.83 300.084 304.83C301.681 304.83 302.321 303.917 302.321 302.457ZM291.856 329.422H277.233V318.037H290.485V315.118H277.233V304.465H291.308V301.409H273.628V332.478H291.856V329.422ZM253.607 320.505C253.607 311.32 252.421 308.538 244.881 308.538C241.634 308.538 238.3 309.541 237.251 310.043C236.018 309.039 233.915 308.538 231.171 308.538C227.833 308.538 224.773 309.313 222.811 310.043V332.478H226.187V312.142C227.468 311.777 229.342 311.411 230.988 311.411C235.332 311.411 236.612 313.056 236.612 320.505V332.478H240.034V320.505C240.034 316.209 239.669 314.062 239.03 312.508C239.578 312.188 242.137 311.411 244.515 311.411C249.042 311.411 250.231 313.056 250.231 320.505V332.478H253.607V320.505ZM215.631 309.086H212.255V329.422C210.838 329.788 208.735 330.153 206.951 330.153C202.105 330.153 200.962 328.508 200.962 321.059V309.086H197.586V321.059C197.586 330.245 198.772 333.027 206.769 333.027C210.289 333.027 213.578 332.251 215.631 331.522V309.086ZM192.328 329.742H179.212L191.917 311.731V309.086H175.648V311.822H188.032L175.237 329.833V332.478H192.328V329.742Z" fill="#231F20"/>
</svg>
